<?xml version="1.0" standalone="no"?>
<!DOCTYPE svg PUBLIC "-//W3C//DTD SVG 20010904//EN"
 "http://www.w3.org/TR/2001/REC-SVG-20010904/DTD/svg10.dtd">
<svg version="1.0" xmlns="http://www.w3.org/2000/svg"
 width="472.000000pt" height="472.000000pt" viewBox="0 0 472.000000 472.000000"
 preserveAspectRatio="xMidYMid meet">
<metadata>
Created by potrace 1.14, written by Peter Selinger 2001-2017
</metadata>
<g transform="translate(0.000000,472.000000) scale(0.100000,-0.100000)"
fill="#000000" stroke="none">
<path d="M1354 4710 c-346 -37 -662 -188 -909 -435 -251 -251 -397 -559 -435
-917 -13 -129 -13 -1891 1 -2016 37 -350 185 -659 434 -907 208 -209 451 -342
750 -411 75 -18 142 -19 1165 -19 1007 0 1091 1 1168 18 290 63 548 203 757
412 209 209 349 467 412 757 17 77 18 161 18 1163 0 1002 -1 1086 -18 1163
-140 651 -666 1122 -1329 1192 -108 11 -1906 11 -2014 0z m1486 -35 c154 -18
320 -55 432 -96 161 -59 381 -174 446 -233 13 -11 34 -41 47 -66 28 -55 91
-253 100 -314 l7 -45 -36 34 c-109 102 -297 220 -444 277 -183 71 -445 108
-635 89 -316 -31 -580 -129 -797 -297 -65 -50 -195 -181 -242 -244 -126 -169
-218 -378 -253 -580 -13 -75 -33 -449 -24 -451 2 0 146 -2 319 -5 173 -2 423
-9 555 -13 343 -13 479 2 612 65 157 75 223 196 223 409 0 153 -28 266 -103
410 -58 113 -199 253 -315 313 -45 24 -106 51 -135 60 l-52 17 125 3 c231 6
423 -31 574 -111 82 -43 222 -183 263 -262 62 -122 76 -178 81 -331 5 -162 -7
-226 -63 -339 -113 -230 -353 -365 -677 -382 -65 -3 -118 -10 -118 -14 0 -20
240 -404 449 -719 98 -148 227 -279 336 -342 87 -50 210 -102 268 -113 24 -5
37 -13 37 -22 0 -14 -25 -15 -197 -10 -301 8 -465 39 -648 122 -98 45 -182
103 -250 172 -95 96 -111 124 -344 606 -45 93 -96 190 -113 215 -47 68 -115
130 -183 165 l-60 32 -292 3 -293 4 0 -151 c0 -310 48 -577 142 -780 191 -416
596 -730 1042 -807 179 -32 541 -5 638 47 11 6 22 8 25 5 10 -10 -220 -114
-297 -135 -121 -32 -268 -44 -450 -38 -259 9 -479 63 -718 177 -372 179 -666
474 -842 845 -67 143 -80 176 -120 319 -51 185 -72 361 -73 606 -1 118 3 242
7 275 7 53 6 58 -8 46 -25 -21 -120 -225 -164 -351 -186 -537 -113 -1125 196
-1590 252 -379 663 -632 1187 -731 104 -20 151 -23 360 -23 219 1 252 3 380
28 480 93 899 345 1231 741 96 114 151 193 257 370 99 164 246 532 280 701 21
103 27 49 16 -130 -12 -210 -33 -331 -86 -506 -66 -221 -177 -459 -291 -625
-140 -202 -271 -341 -472 -496 -323 -250 -716 -406 -1138 -450 -146 -15 -506
-7 -620 15 -574 107 -1098 455 -1404 931 -289 450 -398 957 -312 1460 57 335
228 733 453 1050 71 102 173 225 181 220 5 -3 10 1 13 7 7 19 18 4 28 -39 6
-21 11 -42 12 -48 2 -5 9 -20 17 -31 19 -31 45 -19 76 35 142 246 389 503 645
674 102 68 383 217 409 217 6 0 10 5 10 11 0 33 -192 -24 -327 -98 -46 -25
-83 -43 -83 -40 0 7 133 86 210 125 171 88 341 134 605 165 78 10 263 5 385
-8z m1258 -660 c33 -55 75 -136 94 -180 19 -44 47 -107 61 -140 35 -81 81
-247 103 -375 25 -142 25 -433 0 -580 -42 -258 -113 -453 -223 -618 -117 -176
-255 -293 -454 -386 -154 -71 -155 -70 -27 60 216 221 301 342 412 584 54 119
117 343 143 512 24 158 24 570 0 677 -10 41 -16 76 -13 78 4 4 51 -182 62
-247 4 -25 9 -40 11 -34 8 24 -50 273 -97 412 -28 81 -77 201 -110 267 -65
133 -52 122 38 -30z m-898 -1424 c-36 -22 -192 -54 -275 -57 l-90 -3 80 9 c77
8 265 46 274 56 2 2 9 4 15 4 6 0 4 -5 -4 -9z"/>
<path d="M247 1940 c9 -53 24 -83 17 -35 -4 22 -10 47 -15 55 -5 9 -6 1 -2
-20z"/>
<path d="M274 1815 c21 -166 138 -454 277 -682 202 -330 589 -693 914 -855 75
-38 173 -73 181 -65 3 2 -6 7 -19 11 -45 11 -231 105 -320 160 -131 83 -248
177 -378 306 -302 298 -520 669 -625 1065 -30 113 -40 133 -30 60z"/>
</g>
</svg>
